0
SECTION
2
HEADER
9
$INSUNITS
70
4
9
$ACADVER
1
AC1014
9
$HANDSEED
5
FFFF
0
ENDSEC
0
SECTION
2
TABLES
0
TABLE
2
VPORT
5
8
100
AcDbSymbolTable
0
ENDTAB
0
TABLE
2
LTYPE
5
5
100
AcDbSymbolTable
0
LTYPE
5
14
100
AcDbSymbolTableRecord
100
AcDbLinetypeTableRecord
2
BYBLOCK
70
0
0
LTYPE
5
15
100
AcDbSymbolTableRecord
100
AcDbLinetypeTableRecord
2
BYLAYER
70
0
0
ENDTAB
0
TABLE
2
LAYER
5
2
100
AcDbSymbolTable
70
2
0
LAYER
5
50
100
AcDbSymbolTableRecord
100
AcDbLayerTableRecord
2
0
70
0
6
CONTINUOUS
0
ENDTAB
0
TABLE
2
STYLE
5
3
100
AcDbSymbolTable
70
1
0
STYLE
5
11
100
AcDbSymbolTableRecord
100
AcDbTextStyleTableRecord
2
STANDARD
70
0
0
ENDTAB
0
TABLE
2
VIEW
5
6
100
AcDbSymbolTable
70
0
0
ENDTAB
0
TABLE
2
UCS
5
7
100
AcDbSymbolTable
70
0
0
ENDTAB
0
TABLE
2
APPID
5
9
100
AcDbSymbolTable
70
2
0
APPID
5
12
100
AcDbSymbolTableRecord
100
AcDbRegAppTableRecord
2
ACAD
70
0
0
ENDTAB
0
TABLE
2
DIMSTYLE
5
A
100
AcDbSymbolTable
70
1
0
ENDTAB
0
TABLE
2
BLOCK_RECORD
5
1
100
AcDbSymbolTable
70
1
0
BLOCK_RECORD
5
1F
100
AcDbSymbolTableRecord
100
AcDbBlockTableRecord
2
*MODEL_SPACE
0
BLOCK_RECORD
5
1B
100
AcDbSymbolTableRecord
100
AcDbBlockTableRecord
2
*PAPER_SPACE
0
ENDTAB
0
ENDSEC
0
SECTION
2
BLOCKS
0
BLOCK
5
20
100
AcDbEntity
100
AcDbBlockBegin
2
*MODEL_SPACE
0
ENDBLK
5
21
100
AcDbEntity
100
AcDbBlockEnd
0
BLOCK
5
1C
100
AcDbEntity
100
AcDbBlockBegin
2
*PAPER_SPACE
0
ENDBLK
5
1D
100
AcDbEntity
100
AcDbBlockEnd
0
ENDSEC
0
SECTION
2
ENTITIES
0
LWPOLYLINE
5
100
100
AcDbEntity
8
0
100
AcDbPolyline
90
8
70
1
43
0.0
10
-57.000000774860389
20
53.000000789761557
10
-71.000001132488251
20
53.000000789761543
42
-0.41421356237309348
10
-76.000001132488251
20
58.000000789761536
10
-76.000001132488251
20
61.000000983476646
42
-0.41421356237309348
10
-71.000001132488251
20
66.000000983476639
10
-57.000000774860382
20
66.000000983476639
42
-0.41421356237309503
10
-52.000000774860382
20
61.000000983476639
10
-52.000000774860411
20
58.000000789761543
42
-0.41421356237309609
0
LWPOLYLINE
5
101
100
AcDbEntity
8
0
100
AcDbPolyline
90
8
70
1
43
0.0
10
-61.000000834465027
20
-59.00000087916851
10
-67.000001072883606
20
-59.00000087916851
42
-0.41421356237309503
10
-72.000001072883606
20
-54.00000087916851
10
-72.000001072883592
20
-40.000000521540642
42
-0.41421356237309553
10
-67.000001072883606
20
-35.000000521540642
10
-61.000000834465034
20
-35.000000521540642
42
-0.41421356237309609
10
-56.000000834465034
20
-40.000000521540642
10
-56.000000834465027
20
-54.00000087916851
42
-0.41421356237309503
0
LWPOLYLINE
5
102
100
AcDbEntity
8
0
100
AcDbPolyline
90
30
70
1
43
0.0
10
91.279723858398683
20
95.016151975327944
42
0.15172550124860343
10
88.446993810156428
20
95.896001435143106
10
-38.642404498562314
20
95.896001435143106
42
0.11267784534180027
10
-40.811910478601511
20
95.400803739637055
10
-118.74704509229826
20
57.867360722414666
42
0.13452564877753903
10
-146.65302313457209
20
33.57577751976762
42
-0.25100829294643195
10
-157.05999844936187
20
28.000000566244108
10
-169.50000253319701
20
28.000000566244104
42
0.41421356237309498
10
-182.00000253319701
20
15.5000005662441
10
-182.00000253319701
20
-6.7499999999999982
42
0.41421356237309503
10
-169.50000253319701
20
-19.25
10
-157.22940945358545
20
-19.249999999999989
42
-0.25615974742614778
10
-146.69033448403172
20
-25.028549354036251
42
0.13945668995286734
10
-118.0445983750799
20
-50.455657999554724
10
-40.811910478601725
20
-87.65080373963734
42
0.11267784534180018
10
-38.642404498562385
20
-88.146001435143106
10
88.446993810156513
20
-88.146001435143106
42
0.15172550124861031
10
91.279723858398796
20
-87.266151975327929
10
151.13273004824242
20
-46.115371813786787
42
0.24696698612682977
10
153.30000000000001
20
-41.995221273601793
10
153.30000000000001
20
-24.75
42
-0.41421356237309503
10
158.30000000000001
20
-19.75
10
168.30000000000001
20
-19.75
42
0.41421356237309215
10
173.29999999999998
20
-14.750000000000005
10
173.30000000000001
20
22.499999999999993
42
0.4142135623730927
10
168.30000000000001
20
27.500000000000021
10
158.30000000000001
20
27.5
42
-0.41421356237309503
10
153.30000000000001
20
32.5
10
153.30000000000001
20
49.745221273601736
42
0.24696698612683388
10
151.13273004824231
20
53.86537181378656
0
CIRCLE
5
103
100
AcDbEntity
8
0
100
AcDbCircle
10
163.30000000000001
20
20.25
30
0
40
1.49999999999999
210
0
220
0
230
1
0
CIRCLE
5
104
100
AcDbEntity
8
0
100
AcDbCircle
10
163.30000000000001
20
-11.500000000000002
30
0
40
1.49999999999999
210
0
220
0
230
1
0
CIRCLE
5
105
100
AcDbEntity
8
0
100
AcDbCircle
10
10.349000000000002
20
12.875
30
0
40
2
210
0
220
-0
230
1
0
CIRCLE
5
106
100
AcDbEntity
8
0
100
AcDbCircle
10
10.349000000000002
20
-4.1260000000000101
30
0
40
2
210
0
220
-0
230
1
0
CIRCLE
5
107
100
AcDbEntity
8
0
100
AcDbCircle
10
-96.02008265200601
20
12.7885416593694
30
0
40
1.7499999999999902
210
0
220
-0
230
1
0
CIRCLE
5
108
100
AcDbEntity
8
0
100
AcDbCircle
10
-111.01987703571702
20
12.710002201898101
30
0
40
1.7499999999999902
210
0
220
-0
230
1
0
CIRCLE
5
109
100
AcDbEntity
8
0
100
AcDbCircle
10
-175
20
-3.6250000000000004
30
0
40
1.9999999999999902
210
0
220
-0
230
1
0
CIRCLE
5
110
100
AcDbEntity
8
0
100
AcDbCircle
10
-175
20
12.375
30
0
40
1.9999999999999902
210
0
220
-0
230
1
0
CIRCLE
5
111
100
AcDbEntity
8
0
100
AcDbCircle
10
-160
20
20.25
30
0
40
1.5000000000000002
210
0
220
0
230
1
0
CIRCLE
5
112
100
AcDbEntity
8
0
100
AcDbCircle
10
-160
20
-11.500000000000002
30
0
40
1.5000000000000002
210
0
220
0
230
1
0
CIRCLE
5
113
100
AcDbEntity
8
0
100
AcDbCircle
10
6.1500000000000297
20
44.375
30
0
40
19
210
0
220
-0
230
1
0
ENDSEC
0
SECTION
2
OBJECTS
0
DICTIONARY
5
C
100
AcDbDictionary
3
ACAD_GROUP
350
D
3
ACAD_MLINESTYLE
350
17
0
DICTIONARY
5
D
100
AcDbDictionary
0
DICTIONARY
5
1A
330
C
100
AcDbDictionary
0
DICTIONARY
5
17
100
AcDbDictionary
0
ENDSEC
0
EOF
